<?xml version="1.0" standalone="no"?>
<!DOCTYPE svg PUBLIC "-//W3C//DTD SVG 20010904//EN"
 "http://www.w3.org/TR/2001/REC-SVG-20010904/DTD/svg10.dtd">
<svg version="1.0" xmlns="http://www.w3.org/2000/svg"
 width="594.000000pt" height="439.000000pt" viewBox="0 0 374.000000 439.000000"
 preserveAspectRatio="xMidYMid meet">

<g transform="translate(0.000000,360.000000) scale(0.080000,-0.080000)"
fill="#000000" stroke="none">
<path d="M2186 4374 c-68 -25 -156 -27 -339 -9 -150 15 -188 16 -254 5 -268
-43 -529 -234 -577 -423 -27 -104 -66 -539 -66 -738 l0 -35 -72 9 c-315 39
-699 -133 -839 -377 -33 -58 -38 -124 -15 -180 54 -130 390 -312 731 -396 50
-12 91 -23 93 -25 1 -1 6 -56 11 -121 7 -93 17 -144 46 -231 56 -175 109 -229
235 -240 l59 -6 6 -56 c22 -184 66 -314 146 -428 115 -163 131 -179 236 -244
112 -69 131 -93 158 -195 18 -71 64 -121 240 -262 66 -52 191 -167 278 -254
162 -164 204 -194 95 -66 -99 115 -214 226 -333 322 -108 87 -195 163 -195
170 0 2 9 2 20 -1 27 -7 26 -1 -16 103 -53 132 -77 176 -145 265 -59 78 -335
360 -391 401 l-28 19 0 -32 c0 -18 -2 -30 -5 -27 -15 14 -47 270 -53 421 l-7
175 40 5 c22 2 42 2 44 1 2 -2 -3 -29 -12 -60 -16 -56 -16 -57 12 -118 18 -39
43 -74 72 -98 64 -55 67 -58 102 -113 18 -27 48 -60 67 -73 36 -24 44 -37 54
-84 9 -40 60 -73 156 -102 47 -14 148 -51 225 -83 151 -62 125 -58 362 -63 7
0 -6 -30 -28 -67 -23 -38 -44 -75 -48 -83 -13 -25 -99 -63 -154 -67 -29 -2
-62 -6 -75 -9 -40 -8 -13 -24 43 -24 42 0 68 8 122 36 37 20 85 50 106 66 l37
30 0 -29 c0 -16 -7 -80 -16 -142 -18 -132 -12 -151 38 -125 45 23 69 14 101
-38 l29 -47 -45 -78 c-66 -115 -70 -133 -58 -265 6 -62 11 -138 12 -168 1 -41
3 -49 9 -30 l7 25 5 -30 c3 -16 3 17 0 75 -8 177 21 287 121 458 35 59 35 63
47 232 16 218 2 339 -38 341 -13 0 -12 2 4 9 34 13 82 78 130 175 37 75 50
116 74 242 43 223 50 324 49 663 -2 267 0 313 16 364 10 33 24 92 31 130 l14
71 -5 -95 c-4 -94 -4 -95 13 -62 15 29 40 44 222 126 270 123 343 160 417 212
75 53 223 216 223 244 0 44 -30 33 -103 -37 -224 -214 -309 -241 -887 -273
-192 -11 -617 -11 -665 -1 -30 6 -30 6 22 29 69 29 129 44 313 77 85 16 157
32 160 36 5 7 132 -10 194 -26 38 -10 27 7 -18 29 -20 10 -60 16 -99 16 -48 0
-66 4 -71 15 -4 12 5 15 52 16 56 2 51 4 -34 15 -31 3 -44 11 -52 28 -16 36 3
46 85 46 51 0 75 4 79 13 2 7 -18 56 -45 107 -57 109 -131 291 -203 500 -69
200 -86 235 -173 360 -73 106 -78 110 -113 110 l-37 1 40 14 c120 43 160 11
271 -221 46 -95 100 -198 120 -230 90 -141 157 -307 269 -666 49 -159 69 -188
127 -188 16 0 49 -5 74 -11 41 -11 50 -9 107 17 108 50 243 120 296 155 53 35
60 53 28 73 -14 9 -32 4 -90 -28 -298 -159 -358 -186 -407 -186 -42 0 -52 4
-66 26 -10 14 -46 118 -81 232 -36 114 -76 236 -90 272 -33 83 -131 281 -171
343 -16 26 -60 115 -97 197 -72 158 -112 217 -169 244 -41 19 -58 19 -110 0z
m-543 -31 c-7 -2 -19 -2 -25 0 -7 3 -2 5 12 5 14 0 19 -2 13 -5z m-68 -13
c-16 -4 -39 -8 -50 -8 -16 0 -15 2 5 8 14 4 36 8 50 8 22 0 22 -1 -5 -8z m-78
-16 c-3 -3 -12 -4 -19 -1 -8 3 -5 6 6 6 11 1 17 -2 13 -5z m2213 -1049 c0 -28
-181 -195 -248 -229 -30 -16 -167 -47 -195 -45 -7 0 15 8 48 18 113 33 206 94
320 210 61 63 75 71 75 46z m-2741 -89 c-9 -8 -10 -7 -5 7 3 10 7 33 8 50 1
28 2 28 5 -7 3 -22 -1 -43 -8 -50z m2501 74 c0 -5 -2 -10 -4 -10 -3 0 -8 5
-11 10 -3 6 -1 10 4 10 6 0 11 -4 11 -10z m-2712 -97 c-10 -2 -28 -2 -40 0
-13 2 -5 4 17 4 22 1 32 -1 23 -4z m-105 -10 c-7 -2 -19 -2 -25 0 -7 3 -2 5
12 5 14 0 19 -2 13 -5z m-174 -46 c-125 -52 -238 -127 -348 -231 l-54 -51 32
42 c42 55 116 120 185 161 63 38 204 102 226 102 8 0 -10 -11 -41 -23z m878
-3 c-3 -3 -12 -4 -19 -1 -8 3 -5 6 6 6 11 1 17 -2 13 -5z m50 -10 c-3 -3 -12
-4 -19 -1 -8 3 -5 6 6 6 11 1 17 -2 13 -5z m40 -10 c-3 -3 -12 -4 -19 -1 -8 3
-5 6 6 6 11 1 17 -2 13 -5z m220 -50 c-3 -3 -12 -4 -19 -1 -8 3 -5 6 6 6 11 1
17 -2 13 -5z m50 -10 c-3 -3 -12 -4 -19 -1 -8 3 -5 6 6 6 11 1 17 -2 13 -5z
m56 -11 c-7 -2 -19 -2 -25 0 -7 3 -2 5 12 5 14 0 19 -2 13 -5z m-96 -9 c-3 -3
-12 -4 -19 -1 -8 3 -5 6 6 6 11 1 17 -2 13 -5z m188 -3 c34 -7 35 -9 10 -9
-16 0 -43 4 -60 8 -42 11 -1 11 50 1z m30 -32 c80 -12 236 -24 365 -29 l225
-8 -255 3 c-191 1 -278 6 -345 19 -98 18 -222 49 -165 40 19 -3 98 -14 175
-25z m58 14 c-7 -2 -21 -2 -30 0 -10 3 -4 5 12 5 17 0 24 -2 18 -5z m70 -10
c-7 -2 -19 -2 -25 0 -7 3 -2 5 12 5 14 0 19 -2 13 -5z m600 -30 c-18 -2 -48
-2 -65 0 -18 2 -4 4 32 4 36 0 50 -2 33 -4z m141 -54 c28 -33 36 -27 10 9 -14
20 -14 22 1 22 22 0 27 -18 23 -85 l-3 -57 -28 22 c-24 19 -45 23 -136 28
l-108 5 -7 -34 c-10 -52 6 -61 84 -44 36 8 96 14 134 15 l68 0 -6 -27 c-4 -16
-9 -154 -12 -308 -3 -166 -11 -325 -20 -390 -20 -143 -21 -146 -43 -109 -20
32 -78 85 -140 127 l-42 27 37 32 c34 30 36 34 32 84 -3 37 -16 71 -45 120
-63 109 -144 289 -153 341 l-8 48 -1 -44 c-1 -47 54 -180 123 -296 59 -99 76
-138 76 -179 0 -31 -7 -45 -35 -72 -47 -44 -103 -53 -165 -25 -25 11 -69 23
-97 27 -44 5 -54 4 -59 -10 -9 -24 -3 -27 65 -33 34 -3 61 -9 61 -14 0 -13
-99 -29 -140 -23 -50 8 -72 33 -74 81 -1 59 21 100 59 113 18 6 39 18 45 26
17 19 11 18 -51 -11 -63 -28 -96 -72 -79 -104 5 -11 10 -29 10 -41 0 -12 13
-35 30 -51 30 -31 29 -32 -22 -43 -14 -3 -34 -9 -45 -13 -16 -6 -16 -5 -4 10
26 33 5 27 -29 -8 -27 -28 -37 -32 -52 -24 -25 13 -63 -14 -123 -88 -32 -39
-45 -64 -45 -86 0 -18 -3 -42 -6 -54 l-6 -23 -28 20 c-16 11 -34 20 -40 20 -7
0 -35 15 -62 32 -46 30 -49 35 -46 67 4 32 2 35 -46 57 -28 13 -57 24 -64 24
-16 0 -56 86 -105 225 -41 115 -76 330 -78 476 -1 52 -4 108 -8 124 -6 27 -8
25 -16 -25 -7 -43 -10 -49 -13 -26 -8 58 6 94 41 105 47 16 667 60 1007 72
162 6 297 12 299 15 2 2 17 4 32 4 18 0 36 -10 53 -31z m-1812 -268 c-2 -18
-11 -31 -23 -34 -16 -4 -19 -2 -13 16 15 49 43 63 36 18z m-737 -117 c32 -20
113 -65 179 -100 127 -67 145 -81 50 -39 -147 65 -334 188 -374 246 -20 28
-14 25 32 -18 30 -28 81 -68 113 -89z m709 45 c-12 -13 -20 -16 -22 -9 -3 7 2
16 9 21 25 16 32 9 13 -12z m251 -50 c14 -22 -3 -18 -26 7 -23 25 -23 26 -2
15 12 -6 25 -16 28 -22z m-21 -20 c46 -50 53 -67 66 -176 6 -48 13 -99 16
-113 l5 -24 -21 19 c-33 30 -42 52 -51 131 -9 83 -33 139 -55 130 -8 -3 -21
-9 -29 -12 -10 -4 -15 0 -15 10 0 22 28 76 39 76 5 0 25 -18 45 -41z m198 7
c2 -19 0 -32 -4 -30 -8 5 -12 64 -4 64 2 0 6 -15 8 -34z m-399 -108 c6 -73 73
-217 132 -286 45 -52 59 -48 18 5 -51 64 -81 119 -103 182 -20 61 -27 161 -11
161 21 0 35 -35 33 -81 -1 -26 2 -59 8 -73 8 -22 94 -88 183 -140 27 -15 36
-31 55 -94 23 -72 23 -77 6 -89 -10 -7 -24 -13 -31 -13 -64 0 -215 173 -295
337 -36 76 -39 86 -28 118 6 19 15 35 19 35 5 0 11 -28 14 -62z m-166 -124
c-3 -3 -12 -4 -19 -1 -8 3 -5 6 6 6 11 1 17 -2 13 -5z m63 -14 c0 -12 -8 -12
-35 0 -18 8 -17 9 8 9 15 1 27 -3 27 -9z m1657 -406 c-3 -3 -12 -4 -19 -1 -8
3 -5 6 6 6 11 1 17 -2 13 -5z m24 -49 c-71 -45 -129 -52 -290 -31 -144 18
-210 20 -195 7 26 -24 246 -44 357 -33 76 8 95 14 142 46 57 38 87 48 66 22
-7 -8 -9 -25 -6 -38 3 -14 -2 -35 -14 -55 -19 -30 -23 -31 -106 -38 -47 -4
-99 -5 -115 -2 -23 5 -30 2 -35 -15 -7 -19 -13 -20 -90 -16 -75 4 -90 8 -145
42 -69 43 -93 40 -40 -5 40 -33 23 -40 -34 -12 -46 21 -50 35 -23 75 41 60 76
70 285 75 103 3 189 7 191 9 2 2 27 4 55 4 l51 -1 -54 -34z m-695 -79 c1 -1 5
-12 9 -26 7 -22 6 -23 -8 -12 -13 11 -17 10 -27 -5 -9 -15 -10 -13 -6 15 7 38
-9 43 -18 6 -11 -41 -29 -14 -21 30 l7 36 32 -22 c17 -12 32 -22 32 -22z m-7
-86 c-13 -35 -24 -38 -39 -11 -7 13 -7 22 0 26 5 3 10 -2 10 -12 0 -15 2 -14
16 5 21 30 25 28 13 -8z m860 -170 c-29 -68 -34 -59 -7 14 12 33 24 54 26 48
2 -6 -7 -34 -19 -62z m-916 -727 c17 -34 32 -91 20 -80 -8 9 -43 107 -37 107
2 0 10 -12 17 -27z"/>
<path d="M2035 2790 c-27 -5 -82 -9 -121 -9 -47 -1 -123 -14 -215 -37 -144
-36 -189 -52 -114 -41 168 26 318 37 349 27 26 -8 39 -7 62 5 16 8 48 15 70
15 41 0 62 18 48 41 -6 10 -6 10 -79 -1z"/>
<path d="M2555 2701 c-44 -20 -117 -91 -95 -91 7 0 21 7 30 15 13 12 23 13 44
5 15 -5 40 -10 56 -10 16 0 36 -8 46 -17 15 -16 18 -16 46 0 39 23 47 22 58
-8 12 -30 30 -33 30 -4 0 35 -31 89 -59 103 -48 25 -112 28 -156 7z m35 -21
c0 -5 -4 -10 -10 -10 -5 0 -10 5 -10 10 0 6 5 10 10 10 6 0 10 -4 10 -10z m80
-21 c0 -12 -7 -19 -20 -19 -17 0 -18 3 -8 25 12 27 28 24 28 -6z"/>
<path d="M1881 2673 c-42 -15 -137 -96 -158 -136 -5 -10 -28 -21 -53 -26 l-45
-9 51 -1 c37 -1 53 3 57 14 4 8 25 28 49 45 39 28 48 31 93 26 61 -8 162 8
184 28 14 13 21 13 59 -4 23 -10 42 -18 42 -16 0 1 -24 19 -54 40 -85 58 -142
68 -225 39z m59 -23 c0 -5 -4 -10 -10 -10 -5 0 -10 5 -10 10 0 6 5 10 10 10 6
0 10 -4 10 -10z m96 -6 c35 -9 30 -22 -13 -33 -52 -15 -54 -14 -43 13 5 13 6
27 2 32 -4 4 1 4 11 1 11 -4 30 -10 43 -13z"/>
<path d="M2181 2620 c-1 -29 -17 -55 -85 -142 l-49 -63 67 70 c68 72 81 96 73
136 -4 24 -4 24 -6 -1z"/>
<path d="M2518 2593 c12 -2 30 -2 40 0 9 3 -1 5 -23 4 -22 0 -30 -2 -17 -4z"/>
<path d="M1875 2540 c30 -8 132 -13 124 -6 -2 2 -38 6 -79 9 -46 3 -63 2 -45
-3z"/>
<path d="M2726 2514 c-5 -14 -19 -15 -100 -9 -65 5 -96 4 -100 -4 -12 -19 188
-15 204 4 7 8 16 12 21 9 5 -3 9 0 9 5 0 17 -27 13 -34 -5z"/>
<path d="M1645 2450 l-40 -7 45 -1 c25 -1 52 3 60 8 12 8 11 9 -5 8 -11 0 -38
-4 -60 -8z"/>
<path d="M2710 2430 c0 -3 7 -23 15 -45 12 -33 14 -36 15 -14 0 14 -7 34 -15
45 -8 10 -14 17 -15 14z"/>
<path d="M2620 2087 c0 -13 78 -127 87 -127 3 0 -2 10 -11 23 -9 12 -27 43
-41 70 -26 48 -35 57 -35 34z"/>
<path d="M2232 1079 c-23 -22 -42 -49 -42 -59 0 -30 18 -24 36 13 9 17 26 42
37 54 36 40 12 34 -31 -8z"/>
</g>
</svg>
